<?xml version="1.0" encoding="utf-8"?>
<svg id="master-artboard" viewBox="0 0 189 189" xmlns="http://www.w3.org/2000/svg" width="189px" height="189px" version="1.1" style="shape-rendering:geometricPrecision; text-rendering:geometricPrecision; image-rendering:optimizeQuality; fill-rule:evenodd; clip-rule:evenodd"><rect id="ee-background" x="0" y="0" width="189" height="189" style="fill: white; fill-opacity: 1; pointer-events: none;"/>
 
 <metadata id="CorelCorpID_0Corel-Layer"/>
<g transform="matrix(0.5506628155708313, 0, 0, 0.5506628155708313, -564.9495239257812, -323.80171179771423)"><g transform="matrix(1, 0, 0, 1, 0, 0)">
	<path class="st9" d="M1347.3,700.3c-14.8-28.4-86.1,16.2-114.7,35.7c1.6-2.6,4-6.6,6.9-11.6c25.9-28.6,67.1-79,48.1-91.3&#10;&#9;&#9;c-4.3-2.8-9.3-2.1-14.5,1c-0.8-7.6-4.2-13.1-11.3-15.4c-25.8-8.1-43.2,49-52,87.4c-0.8-39.1-7.1-105.9-40.4-99.8&#10;&#9;&#9;c-30.8,5.7-17,68.4-3.9,110.7c-28.8-27.1-77.4-65.9-96-39c-9.1,13.2,0.7,28.7,17.6,43.5c-29.8-7-52.6-5.2-41.3,22.3&#10;&#9;&#9;c23.7,57.9,116.6,37,134.6,32.3c0.2,0.1,0.3,0.1,0.5,0.2c-3.5,1.4-10.2,4.2-18.6,8c-42.1,16.7-132.9,57.4-82.8,78.3&#10;&#9;&#9;c44.6,18.7,85.1-25.1,105.6-53.3c4.3-5,7.7-9.3,10.1-12.3c-11.8,29.1-43.4,115.3-3.1,115.3c9.2,0,16-4.4,20.9-11.6&#10;&#9;&#9;c0.8,0,1.6,0,2.4-0.1c43.6-3.3,7.8-108.5,7.8-108.5s0.5,0.3,1.4,0.9c11.8,18.3,60.7,89.6,85.6,60.6c4.6-5.4,5.8-11.1,4.7-17&#10;&#9;&#9;c14.1,2.8,23.7,0,22.4-13.7c-3.1-33.1-52.2-49.4-79.5-55.9c33.9-8.7,100.6-28.8,88-49.7C1349.5,712,1350.4,706.2,1347.3,700.3z" style="fill: rgb(144, 120, 158);"/>
	<path class="st5" d="M1218.4,772c-6.7,6.7-17.8,6.3-24.8-0.7c-7.1-7.1-7.4-18.2-0.7-24.8c6.7-6.7,17.8-6.3,24.8,0.7&#10;&#9;&#9;C1224.7,754.2,1225,765.3,1218.4,772z" style="fill: rgb(216, 153, 179);"/>
</g></g></svg>