<?xml version="1.0" encoding="utf-8"?>
<svg id="master-artboard" viewBox="15 -15 280.8134765625 119.82907104492188" version="1.1" xmlns="http://www.w3.org/2000/svg" x="0px" y="0px" style="enable-background:new 0 0 1400 980;" width="280.8134765625px" height="100.82907104492188px"><defs><path id="text-path-0" d="M 475.2845764160156 341.20855712890625 A 100 4 0 0 1 898.5065307617188 341.20855712890625 A 100 4 0 0 1 475.2845764160156 341.20855712890625 Z" style="fill: none; stroke: red; stroke-width: 2;"/><style id="ee-google-fonts">@import url(https://fonts.googleapis.com/css?family=Aladin:400);</style><path d="M 0 0 H 1400 V 980 H 0 V 0 Z" id="SVGID_1_"/></defs><rect id="ee-background" x="0" y="0" width="280.8134765625" height="110.82907104492188" style="fill: white; fill-opacity: 0; pointer-events: none;"/><g transform="matrix(0.23773519694805145, 0, 0, 0.23773519694805145, -225.11360931396484, -119.01295471191406)"><g transform="matrix(1, 0, 0, 1, 0, 0)">
	<path class="st9" d="M1347.3,700.3c-14.8-28.4-86.1,16.2-114.7,35.7c1.6-2.6,4-6.6,6.9-11.6c25.9-28.6,67.1-79,48.1-91.3&#10;&#9;&#9;c-4.3-2.8-9.3-2.1-14.5,1c-0.8-7.6-4.2-13.1-11.3-15.4c-25.8-8.1-43.2,49-52,87.4c-0.8-39.1-7.1-105.9-40.4-99.8&#10;&#9;&#9;c-30.8,5.7-17,68.4-3.9,110.7c-28.8-27.1-77.4-65.9-96-39c-9.1,13.2,0.7,28.7,17.6,43.5c-29.8-7-52.6-5.2-41.3,22.3&#10;&#9;&#9;c23.7,57.9,116.6,37,134.6,32.3c0.2,0.1,0.3,0.1,0.5,0.2c-3.5,1.4-10.2,4.2-18.6,8c-42.1,16.7-132.9,57.4-82.8,78.3&#10;&#9;&#9;c44.6,18.7,85.1-25.1,105.6-53.3c4.3-5,7.7-9.3,10.1-12.3c-11.8,29.1-43.4,115.3-3.1,115.3c9.2,0,16-4.4,20.9-11.6&#10;&#9;&#9;c0.8,0,1.6,0,2.4-0.1c43.6-3.3,7.8-108.5,7.8-108.5s0.5,0.3,1.4,0.9c11.8,18.3,60.7,89.6,85.6,60.6c4.6-5.4,5.8-11.1,4.7-17&#10;&#9;&#9;c14.1,2.8,23.7,0,22.4-13.7c-3.1-33.1-52.2-49.4-79.5-55.9c33.9-8.7,100.6-28.8,88-49.7C1349.5,712,1350.4,706.2,1347.3,700.3z" style="fill: rgb(144, 120, 158); stroke-opacity: 0.8; stroke: rgb(0, 0, 0); stroke-width: 0; fill-opacity: 0.44; paint-order: stroke;"/>
	<path class="st5" d="M1218.4,772c-6.7,6.7-17.8,6.3-24.8-0.7c-7.1-7.1-7.4-18.2-0.7-24.8c6.7-6.7,17.8-6.3,24.8,0.7&#10;&#9;&#9;C1224.7,754.2,1225,765.3,1218.4,772z" style="fill: rgb(216, 153, 179); stroke-opacity: 0.8; stroke: rgb(0, 0, 0); stroke-width: 0; fill-opacity: 0.44; paint-order: stroke;"/>
</g></g><path d="M 582.0492553710938 253.6198272705078 C 574.8850708007812 263.02294921875 569.7737426757812 272.3799743652344 566.7152099609375 281.6909484863281 L 566.8551635742188 281.68780517578125 C 579.8252563476562 281.396728515625 587.2672119140625 281.2530517578125 589.18115234375 281.25677490234375 C 591.0950317382812 281.260498046875 592.1431884765625 281.1669616699219 592.3256225585938 280.9761657714844 C 592.508056640625 280.78533935546875 592.6427612304688 280.5489196777344 592.7297973632812 280.26690673828125 C 590.885986328125 268.8254089355469 589.450927734375 261.0389709472656 588.4246215820312 256.9076232910156 C 587.3983764648438 252.77627563476562 586.4186401367188 250.7210693359375 585.4855346679688 250.7420196533203 C 584.552490234375 250.76295471191406 583.4070434570312 251.72222900390625 582.0492553710938 253.6198272705078 M 571.0718383789062 319.8227844238281 L 574.1385498046875 319.1938171386719 C 575.0715942382812 319.1728820800781 575.5496826171875 319.6756286621094 575.5726928710938 320.7020263671875 C 575.64599609375 323.9678649902344 575.0546264648438 326.73516845703125 573.7985229492188 329.0039367675781 C 572.54248046875 331.2726745605469 570.9451293945312 332.8955993652344 569.006591796875 333.8726806640625 C 565.86962890625 335.5301208496094 563.1814575195312 336.3840026855469 560.9420166015625 336.43426513671875 C 556.6497802734375 336.53057861328125 553.3944702148438 334.99322509765625 551.1760864257812 331.82220458984375 C 548.9577026367188 328.65118408203125 547.7757568359375 323.8231506347656 547.6301879882812 317.3381042480469 C 547.4846801757812 310.85308837890625 549.0685424804688 302.39208984375 552.3818969726562 291.9551086425781 L 544.2639770507812 292.1372985839844 C 543.237548828125 292.16033935546875 542.7128295898438 291.6586608886719 542.6897583007812 290.6322326660156 C 542.666748046875 289.6058349609375 543.4227294921875 287.9317932128906 544.9577026367188 285.6100769042969 C 546.4926147460938 283.28839111328125 548.1465454101562 282.107666015625 549.91943359375 282.06787109375 L 556.2178344726562 281.926513671875 C 562.5120239257812 267.0348815917969 570.0175170898438 254.1232452392578 578.7344360351562 243.1915740966797 C 581.00439453125 240.33993530273438 583.8150024414062 237.66287231445312 587.1663818359375 235.16038513183594 C 590.5177612304688 232.6578826904297 593.1265258789062 231.3856964111328 594.9927368164062 231.3438262939453 C 596.8589477539062 231.30194091796875 598.2774047851562 232.11032104492188 599.2482299804688 233.76895141601562 C 601.76220703125 237.63351440429688 604.9296264648438 251.89271545410156 608.7503662109375 276.5465087890625 C 610.1088256835938 287.1587219238281 612.2915649414062 298.1025085449219 615.2986450195312 309.37786865234375 C 618.3057250976562 320.6532287597656 620.99658203125 327.1978454589844 623.3712158203125 329.0116882324219 C 623.939453125 329.37237548828125 624.2297973632812 329.8326416015625 624.2423706054688 330.3924865722656 C 624.2738037109375 331.7921447753906 622.3203125 333.1429748535156 618.3818359375 334.44500732421875 C 614.4434204101562 335.7470397949219 611.4244384765625 336.4216003417969 609.324951171875 336.4687194824219 C 607.2255249023438 336.5158386230469 605.6101684570312 336.29534912109375 604.4788818359375 335.8072814941406 C 603.34765625 335.3192138671875 602.6358032226562 334.7983703613281 602.3433227539062 334.24481201171875 C 600.5820922851562 330.6434020996094 598.707763671875 322.0032958984375 596.7203369140625 308.3244323730469 L 595.73291015625 301.7649230957031 C 595.26123046875 297.38775634765625 594.8136596679688 294.0836181640625 594.3901977539062 291.8525695800781 L 593.3947143554688 291.17474365234375 L 564.138916015625 291.6912536621094 C 563.1260375976562 296.4751892089844 562.6593627929688 300.6400451660156 562.7389526367188 304.1858215332031 C 562.8184814453125 307.7315979003906 562.9932250976562 310.3183288574219 563.26318359375 311.9460144042969 C 563.5330810546875 313.5736999511719 564.3421630859375 315.30596923828125 565.6903686523438 317.1428527832031 C 567.03857421875 318.979736328125 568.8323974609375 319.873046875 571.0718383789062 319.8227844238281 ZM 672.7150268554688 290.7113037109375 L 672.5654907226562 308.63287353515625 C 672.6558837890625 321.0458679199219 674.0635375976562 328.50250244140625 676.7884521484375 331.0027160644531 C 677.1644897460938 331.3733215332031 677.3541870117188 331.7919616699219 677.3576049804688 332.25860595703125 C 677.3677978515625 333.6585693359375 674.3629760742188 334.3804626464844 668.3431396484375 334.4242858886719 C 662.3233032226562 334.4681091308594 659.1138305664062 332.7181091308594 658.7146606445312 329.17425537109375 C 658.615234375 328.3349304199219 658.5559692382812 326.6086730957031 658.5369873046875 323.9953918457031 L 658.9338989257812 301.5919189453125 C 658.9291381835938 300.9385986328125 658.5534057617188 300.6146545410156 657.8067626953125 300.6200866699219 C 653.326904296875 300.6527099609375 649.1361694335938 301.9432373046875 645.234619140625 304.49169921875 C 641.3330688476562 307.0401916503906 639.3966064453125 310.27435302734375 639.4251098632812 314.1942443847656 C 639.4400634765625 316.2475280761719 640.0126342773438 317.9700927734375 641.1427612304688 319.36187744140625 C 642.27294921875 320.7536926269531 643.6546630859375 321.44366455078125 645.2879638671875 321.4317626953125 C 646.9212646484375 321.4198913574219 648.2721557617188 321.0833740234375 649.3406982421875 320.4222412109375 C 650.4092407226562 319.7611083984375 651.0364990234375 319.3832092285156 651.2225341796875 319.28851318359375 C 652.8104858398438 319.463623046875 653.6158447265625 321.1144714355469 653.6386108398438 324.2410583496094 C 653.661376953125 327.3676452636719 652.2330932617188 329.8981018066406 649.353759765625 331.83245849609375 C 646.4744262695312 333.76678466796875 643.4481201171875 334.7455139160156 640.27490234375 334.76861572265625 C 637.1016235351562 334.7917175292969 634.36767578125 334.2516174316406 632.0728759765625 333.1482849121094 C 629.7781372070312 332.0449523925781 628.1123046875 330.79705810546875 627.0755004882812 329.404541015625 C 626.0386962890625 328.0120544433594 625.1871337890625 326.4315490722656 624.5209350585938 324.66302490234375 C 623.8519897460938 322.52117919921875 623.51171875 320.65692138671875 623.5001831054688 319.0703125 C 623.45263671875 312.5371398925781 625.4678344726562 307.2956848144531 629.5458984375 303.34588623046875 C 633.6239013671875 299.3960876464844 638.876708984375 296.5577697753906 645.3043212890625 294.8309326171875 C 653.7852172851562 293.08917236328125 658.2072143554688 291.5169372558594 658.5703125 290.1142578125 C 658.8428344726562 289.0855712890625 658.9702758789062 287.3579406738281 658.95263671875 284.93133544921875 C 658.9166259765625 279.98480224609375 656.378662109375 277.5298767089844 651.3388061523438 277.5665588378906 C 649.1921997070312 277.5821838378906 647.2838134765625 278.27276611328125 645.6137084960938 279.6383056640625 C 643.943603515625 281.0038146972656 643.1160278320312 282.7132263183594 643.1309814453125 284.7665100097656 L 643.9954223632812 288.12030029296875 C 643.8203125 289.7082824707031 642.1471557617188 290.65380859375 638.9759521484375 290.9569091796875 L 637.43701171875 291.1081237792969 C 634.6370849609375 291.1285095214844 632.4154052734375 290.44464111328125 630.7719116210938 289.05657958984375 C 629.12841796875 287.66851806640625 628.2981567382812 285.8078308105469 628.2811889648438 283.47454833984375 C 628.2703247070312 281.98126220703125 628.7482299804688 280.3210754394531 629.7149658203125 278.4939880371094 C 630.6817016601562 276.6669006347656 631.9076538085938 275.1879577636719 633.3927612304688 274.0570983886719 C 634.8779296875 272.92626953125 637.1805419921875 271.9061584472656 640.3007202148438 270.9967346191406 C 643.4208374023438 270.08734130859375 646.427490234375 269.6221008300781 649.3207397460938 269.6010437011719 C 652.2140502929688 269.5799865722656 654.4546508789062 269.6570129394531 656.0426025390625 269.8321228027344 C 657.630615234375 270.0072326660156 659.8037719726562 270.43475341796875 662.5621337890625 271.11468505859375 C 665.3204956054688 271.7946472167969 667.6167602539062 273.1079406738281 669.4509887695312 275.0546569824219 C 671.2852172851562 277.0013427734375 672.2803344726562 279.0708312988281 672.436279296875 281.2630920410156 C 672.5922241210938 283.4553527832031 672.6851806640625 286.604736328125 672.7150268554688 290.7113037109375 ZM 696.4305419921875 252.66934204101562 L 695.5843505859375 304.04925537109375 C 695.5824584960938 320.1025695800781 696.0946044921875 329.7159729003906 697.1209106445312 332.8894348144531 C 697.4008178710938 333.449462890625 697.540771484375 334.0094909667969 697.5407104492188 334.5694885253906 C 697.5405883789062 335.6894836425781 696.1871948242188 336.24932861328125 693.4805297851562 336.2489929199219 C 690.7738647460938 336.2486572265625 687.763916015625 335.5716552734375 684.4507446289062 334.2179260253906 C 681.1375732421875 332.86419677734375 679.4811401367188 331.1139831542969 679.4813842773438 328.9673156738281 C 681.349609375 315.90087890625 682.2850341796875 298.4476623535156 682.2876586914062 276.607666015625 L 681.730224609375 255.18759155273438 C 681.5438842773438 252.57423400878906 681.0074462890625 250.33416748046875 680.1210327148438 248.46739196777344 C 679.2345581054688 246.60061645507812 678.3713989257812 245.38719177246094 677.5314331054688 244.82708740234375 L 676.4115600585938 244.126953125 C 675.7582397460938 243.7535400390625 675.431640625 243.33351135253906 675.4317016601562 242.86683654785156 C 675.4318237304688 241.56016540527344 677.4620361328125 239.95040893554688 681.5222778320312 238.03756713867188 C 685.58251953125 236.1247100830078 689.5259399414062 235.16851806640625 693.3526000976562 235.16897583007812 C 694.845947265625 235.16915893554688 695.6858520507812 235.68258666992188 695.8724365234375 236.7092742919922 C 696.2454833984375 239.135986328125 696.4315185546875 244.4560089111328 696.4305419921875 252.66934204101562 ZM 727.8554077148438 371.6892395019531 C 727.8468627929688 372.8092346191406 727.2826538085938 373.3649597167969 726.1626586914062 373.3564453125 L 726.022705078125 373.3553771972656 C 722.9427490234375 373.33197021484375 719.474365234375 372.23223876953125 715.617431640625 370.05621337890625 C 711.7605590820312 367.8801574707031 709.8427124023438 365.3921813964844 709.864013671875 362.5922546386719 C 709.8853149414062 359.7923278808594 711.6956176757812 354.9292907714844 715.2950439453125 348.00311279296875 C 718.8944702148438 341.0769348144531 720.7030029296875 336.44720458984375 720.7207641601562 334.11395263671875 C 720.7399291992188 331.5940246582031 719.56103515625 327.0582580566406 717.18408203125 320.5066833496094 C 714.168701171875 311.99017333984375 711.7713012695312 305.0650939941406 709.9917602539062 299.7314147949219 C 708.2122192382812 294.3977355957031 706.2879638671875 289.6929626464844 704.2188720703125 285.61712646484375 C 702.1497802734375 281.5412902832031 700.6514282226562 279.1264953613281 699.7238159179688 278.3727722167969 L 698.331298828125 277.38214111328125 C 697.3088989257812 276.8143615722656 696.8001708984375 276.20379638671875 696.80517578125 275.5505065917969 C 696.8150634765625 274.2438659667969 698.8551635742188 272.9293212890625 702.92529296875 271.6069030761719 C 706.9954833984375 270.2844543457031 710.5704956054688 269.63494873046875 713.6504516601562 269.6583557128906 C 715.0503540039062 269.6689758300781 716.20849609375 270.7978210449219 717.124755859375 273.04486083984375 C 718.7714233398438 277.44415283203125 720.5452270507812 283.52447509765625 722.4462890625 291.28582763671875 C 727.0855712890625 307.1882019042969 730.0118408203125 315.1440124511719 731.2251586914062 315.1532287597656 C 732.0651245117188 315.15960693359375 733.7932739257812 311.9059753417969 736.4094848632812 305.3923645019531 C 739.0257568359375 298.87872314453125 740.34912109375 293.61529541015625 740.379638671875 289.6020812988281 C 740.4328002929688 282.6022644042969 738.4107666015625 278.4801025390625 734.3134155273438 277.235595703125 C 733.3815307617188 277.0418395996094 732.91845703125 276.5716552734375 732.9241333007812 275.82501220703125 C 732.9368896484375 274.1450500488281 735.1423950195312 272.5517578125 739.5406494140625 271.045166015625 C 743.9389038085938 269.5385437011719 747.9112548828125 268.7987060546875 751.4578247070312 268.8256530761719 C 754.5377807617188 268.84906005859375 756.0624389648438 270.86737060546875 756.031982421875 274.8805847167969 C 756.008544921875 277.96051025390625 755.3279418945312 281.54876708984375 753.9901123046875 285.6453857421875 C 752.6522216796875 289.74200439453125 751.414306640625 292.9760437011719 750.2762451171875 295.3474426269531 C 749.13818359375 297.7188720703125 746.3197631835938 303.20428466796875 741.8209228515625 311.80364990234375 C 737.3220825195312 320.4030456542969 733.6012573242188 327.95831298828125 730.6583251953125 334.469482421875 C 727.425537109375 342.2851257324219 725.7782592773438 350.2528381347656 725.716552734375 358.37261962890625 C 725.6838989257812 362.66583251953125 726.0327758789062 365.8885803222656 726.7630615234375 368.04083251953125 C 727.493408203125 370.193115234375 727.8575439453125 371.4092712402344 727.8554077148438 371.6892395019531 ZM 803.9851684570312 292.0726623535156 L 803.3547973632812 309.9837646484375 C 803.1119995117188 322.3947448730469 804.319091796875 329.8864440917969 806.9759521484375 332.4588928222656 C 807.3419189453125 332.8394470214844 807.5203247070312 333.2630310058594 807.5111694335938 333.7295837402344 C 807.4838256835938 335.12933349609375 804.460693359375 335.77032470703125 798.4418334960938 335.652587890625 C 792.4230346679688 335.5348815917969 789.2616577148438 333.6993713378906 788.9577026367188 330.1460876464844 C 788.880859375 329.3044128417969 788.8679809570312 327.5771484375 788.9190673828125 324.9643249511719 L 789.9169921875 302.5795593261719 C 789.9298095703125 301.9263610839844 789.5629272460938 301.5924377441406 788.81640625 301.5778503417969 C 784.3372802734375 301.490234375 780.1134033203125 302.6678466796875 776.1448974609375 305.1107177734375 C 772.1763305664062 307.5535583496094 770.1537475585938 310.734619140625 770.0770874023438 314.65386962890625 C 770.0369262695312 316.7068176269531 770.5630493164062 318.444091796875 771.6554565429688 319.8657531738281 C 772.7478637695312 321.2873840332031 774.110595703125 322.01416015625 775.7435913085938 322.0461120605469 C 777.3766479492188 322.07806396484375 778.736083984375 321.7779235839844 779.822021484375 321.14569091796875 C 780.9078979492188 320.51348876953125 781.5451049804688 320.15252685546875 781.7335205078125 320.0628662109375 C 783.3162231445312 320.280517578125 784.0770263671875 321.952392578125 784.015869140625 325.0784606933594 C 783.9547729492188 328.20452880859375 782.4590454101562 330.6957702636719 779.5288696289062 332.5521545410156 C 776.5986938476562 334.4085388183594 773.5472412109375 335.3056945800781 770.37451171875 335.2436218261719 C 767.2017822265625 335.18157958984375 764.4832153320312 334.56829833984375 762.2189331054688 333.4037780761719 C 759.95458984375 332.2392883300781 758.3228759765625 330.9471130371094 757.3237915039062 329.5273132324219 C 756.32470703125 328.1075134277344 755.515869140625 326.50469970703125 754.8973388671875 324.71893310546875 C 754.2861328125 322.5599060058594 753.9960327148438 320.6872253417969 754.0270385742188 319.1008605957031 C 754.1548461914062 312.5687561035156 756.3099975585938 307.38323974609375 760.4924926757812 303.5443115234375 C 764.675048828125 299.70538330078125 770.0021362304688 297.009033203125 776.4737548828125 295.4552917480469 C 784.9983520507812 293.94171142578125 789.4609375 292.48870849609375 789.861572265625 291.0962829589844 C 790.16162109375 290.0752868652344 790.3353271484375 288.3516845703125 790.3828125 285.92547607421875 C 790.4795532226562 280.9797668457031 788.0083618164062 278.4576110839844 782.9693603515625 278.35906982421875 C 780.8231201171875 278.31707763671875 778.8969116210938 278.9562072753906 777.1907348632812 280.27642822265625 C 775.484619140625 281.5966491699219 774.6114501953125 283.2832336425781 774.5712890625 285.3361511230469 L 775.3453979492188 288.7119445800781 C 775.1277465820312 290.2946472167969 773.4298095703125 291.1949462890625 770.2516479492188 291.412841796875 L 768.7091674804688 291.522705078125 C 765.9097290039062 291.46795654296875 763.7071533203125 290.7247314453125 762.1015014648438 289.2930603027344 C 760.4959106445312 287.86138916015625 759.7158813476562 285.9790954589844 759.7615356445312 283.6462097167969 C 759.7907104492188 282.1531677246094 760.3130493164062 280.50640869140625 761.3284301757812 278.7059020996094 C 762.3438110351562 276.9054260253906 763.6090087890625 275.45989990234375 765.1239624023438 274.36932373046875 C 766.638916015625 273.2787170410156 768.9680786132812 272.3207702636719 772.1115112304688 271.49542236328125 C 775.2548828125 270.6700439453125 778.2730102539062 270.2856750488281 781.165771484375 270.3422546386719 C 784.0585327148438 270.3988342285156 786.2963256835938 270.53594970703125 787.8790283203125 270.7536315917969 C 789.4617309570312 270.9712829589844 791.6226196289062 271.45697021484375 794.3617553710938 272.210693359375 C 797.1008911132812 272.9643859863281 799.361083984375 274.3388671875 801.1424560546875 276.3340759277344 C 802.9237670898438 278.32928466796875 803.8629760742188 280.4247131347656 803.9600219726562 282.620361328125 C 804.05712890625 284.8160400390625 804.0654907226562 287.966796875 803.9851684570312 292.0726623535156 Z" transform="matrix(0.3518604636192322, 0, 0, 0.3518604636192322, -117.59368133544922, -43.10676574707031)" style="fill: rgb(8, 4, 10); white-space: pre; color: rgb(255, 79, 94);"/><path d="M 919.5679321289062 252.39840698242188 L 919.5979614257812 255.83840942382812 L 919.4879150390625 260.5984191894531 C 919.5012817382812 260.6717529296875 919.5279541015625 260.7084045410156 919.5679321289062 260.7084045410156 C 919.6012573242188 260.7084045410156 919.6279296875 260.68841552734375 919.64794921875 260.6484069824219 C 920.0145874023438 260.13507080078125 920.4679565429688 259.87841796875 921.0079345703125 259.87841796875 C 921.5546264648438 259.87841796875 921.8279418945312 259.9884033203125 921.8279418945312 260.2084045410156 C 921.8279418945312 260.9084167480469 921.9579467773438 261.445068359375 922.2179565429688 261.81842041015625 C 922.484619140625 262.19842529296875 922.8612670898438 262.3883972167969 923.3479614257812 262.3883972167969 C 923.8345947265625 262.3883972167969 924.3046264648438 262.05841064453125 924.7579345703125 261.3984069824219 C 925.20458984375 260.7384033203125 925.4279174804688 259.8550720214844 925.4279174804688 258.7484130859375 C 925.4279174804688 258.3817443847656 925.3546142578125 257.9417419433594 925.2079467773438 257.42840576171875 C 924.9146118164062 256.4017333984375 924.3646240234375 255.71507263183594 923.5579223632812 255.368408203125 C 922.9712524414062 255.12841796875 922.0179443359375 255.00840759277344 920.6979370117188 255.00840759277344 C 920.55126953125 255.00840759277344 920.4779663085938 254.90841674804688 920.4779663085938 254.70840454101562 C 920.4779663085938 253.68174743652344 920.6612548828125 253.15174865722656 921.0279541015625 253.118408203125 C 921.521240234375 253.118408203125 922.0446166992188 252.98841857910156 922.5979614257812 252.72840881347656 C 923.6979370117188 252.21507263183594 924.2479248046875 251.1617431640625 924.2479248046875 249.5684051513672 C 924.2479248046875 247.8417510986328 923.2579345703125 246.97840881347656 921.2779541015625 246.97840881347656 L 920.4179077148438 247.0384063720703 C 920.0912475585938 247.1117401123047 919.907958984375 247.2484130859375 919.867919921875 247.4484100341797 L 919.867919921875 247.52841186523438 C 919.6679077148438 248.26174926757812 919.5679321289062 249.88507080078125 919.5679321289062 252.39840698242188 M 915.5279541015625 265.1684265136719 L 915.5779418945312 264.8583984375 C 915.7645874023438 264.53173828125 915.9212646484375 263.18841552734375 916.0479125976562 260.8283996582031 C 916.1746215820312 258.4750671386719 916.2379150390625 256.27508544921875 916.2379150390625 254.22840881347656 C 916.2379150390625 252.18174743652344 916.1979370117188 250.5384063720703 916.117919921875 249.2984161376953 C 916.03125 248.06507873535156 915.8046264648438 247.1717529296875 915.4379272460938 246.618408203125 C 915.3646240234375 246.52508544921875 915.3279418945312 246.4150848388672 915.3279418945312 246.2884063720703 C 915.3279418945312 246.1617431640625 915.4379272460938 246.05174255371094 915.657958984375 245.95840454101562 C 917.1646118164062 245.3717498779297 919.2112426757812 245.0784149169922 921.7979125976562 245.0784149169922 C 922.4379272460938 245.0784149169922 923.1345825195312 245.1650848388672 923.887939453125 245.33840942382812 C 924.6412963867188 245.51174926757812 925.2612915039062 245.72840881347656 925.7479248046875 245.9884033203125 C 926.2279663085938 246.2417449951172 926.6679077148438 246.63507080078125 927.0679321289062 247.1684112548828 C 927.4612426757812 247.70175170898438 927.6846313476562 248.3350830078125 927.7379150390625 249.0684051513672 C 927.7379150390625 251.72840881347656 926.637939453125 253.26174926757812 924.4379272460938 253.6684112548828 C 924.3245849609375 253.70175170898438 924.2679443359375 253.7417449951172 924.2679443359375 253.7884063720703 C 924.2679443359375 253.8350830078125 924.3145751953125 253.88507080078125 924.407958984375 253.93841552734375 C 925.5479125976562 254.1250762939453 926.5012817382812 254.5850830078125 927.2679443359375 255.3184051513672 C 927.6546020507812 255.6650848388672 928.0045776367188 256.205078125 928.3179321289062 256.93841552734375 C 928.6312866210938 257.6717529296875 928.7879638671875 258.51507568359375 928.7879638671875 259.4684143066406 C 928.7879638671875 260.695068359375 928.4279174804688 261.8583984375 927.7079467773438 262.9584045410156 C 927.1212768554688 263.8583984375 926.2679443359375 264.5017395019531 925.14794921875 264.8883972167969 C 924.5279541015625 265.1083984375 923.831298828125 265.2184143066406 923.0579223632812 265.2184143066406 C 921.1312866210938 265.2184143066406 919.9112548828125 264.6050720214844 919.39794921875 263.37841796875 C 919.3845825195312 263.31842041015625 919.35791015625 263.2884216308594 919.3179321289062 263.2884216308594 L 919.2079467773438 263.3984069824219 C 918.8212890625 264.6850891113281 917.7212524414062 265.3550720214844 915.907958984375 265.4084167480469 C 915.6546020507812 265.4084167480469 915.5279541015625 265.3283996582031 915.5279541015625 265.1684265136719 ZM 939.0408935546875 256.5284118652344 L 938.9909057617188 260.04840087890625 C 938.9909057617188 262.4884033203125 939.257568359375 263.955078125 939.7908935546875 264.44842529296875 C 939.8641967773438 264.5217590332031 939.90087890625 264.6050720214844 939.90087890625 264.69842529296875 C 939.90087890625 264.97174072265625 939.3075561523438 265.1083984375 938.1209106445312 265.1083984375 C 936.9408569335938 265.1083984375 936.314208984375 264.7584228515625 936.2409057617188 264.05841064453125 C 936.2208862304688 263.8984069824219 936.2108764648438 263.5617370605469 936.2108764648438 263.04840087890625 L 936.3208618164062 258.6383972167969 C 936.3208618164062 258.5117492675781 936.24755859375 258.44842529296875 936.1008911132812 258.44842529296875 C 935.2208862304688 258.44842529296875 934.3942260742188 258.69842529296875 933.6209106445312 259.19842529296875 C 932.8541870117188 259.6917419433594 932.4708862304688 260.3217468261719 932.4708862304688 261.0884094238281 C 932.4708862304688 261.4950866699219 932.5808715820312 261.8350830078125 932.8009033203125 262.1083984375 C 933.0208740234375 262.3817443847656 933.2908935546875 262.5184020996094 933.6109008789062 262.5184020996094 C 933.930908203125 262.5184020996094 934.1975708007812 262.455078125 934.410888671875 262.3283996582031 C 934.6175537109375 262.2017517089844 934.7409057617188 262.12841796875 934.7808837890625 262.1083984375 C 935.09423828125 262.1484069824219 935.2508544921875 262.4750671386719 935.2508544921875 263.0884094238281 C 935.2508544921875 263.7017517089844 934.9642333984375 264.195068359375 934.390869140625 264.56842041015625 C 933.82421875 264.94842529296875 933.2308959960938 265.1383972167969 932.6109008789062 265.1383972167969 C 931.9841918945312 265.1383972167969 931.4475708007812 265.0284118652344 931.0008544921875 264.80841064453125 C 930.5475463867188 264.5884094238281 930.2208862304688 264.3384094238281 930.0208740234375 264.05841064453125 C 929.8208618164062 263.7850646972656 929.6575317382812 263.4750671386719 929.5308837890625 263.12841796875 C 929.3975219726562 262.7084045410156 929.3308715820312 262.34173583984375 929.3308715820312 262.0284118652344 C 929.3308715820312 260.74176025390625 929.7341918945312 259.715087890625 930.5408935546875 258.94842529296875 C 931.3475341796875 258.1750793457031 932.3842163085938 257.6250915527344 933.65087890625 257.29840087890625 C 935.32421875 256.965087890625 936.1975708007812 256.6617431640625 936.2708740234375 256.3883972167969 C 936.32421875 256.18841552734375 936.3508911132812 255.84841918945312 936.3508911132812 255.368408203125 C 936.3508911132812 254.39508056640625 935.8541870117188 253.90841674804688 934.8609008789062 253.90841674804688 C 934.4408569335938 253.90841674804688 934.064208984375 254.041748046875 933.7308959960938 254.30841064453125 C 933.4042358398438 254.5750732421875 933.2409057617188 254.9117431640625 933.2409057617188 255.3184051513672 L 933.40087890625 255.97840881347656 C 933.3675537109375 256.2850646972656 933.0375366210938 256.4684143066406 932.410888671875 256.5284118652344 L 932.1109008789062 256.54840087890625 C 931.564208984375 256.54840087890625 931.1275634765625 256.4117431640625 930.8009033203125 256.1383972167969 C 930.4808959960938 255.86508178710938 930.3208618164062 255.4984130859375 930.3208618164062 255.0384063720703 C 930.3208618164062 254.7450714111328 930.4175415039062 254.4184112548828 930.6109008789062 254.05841064453125 C 930.80419921875 253.705078125 931.0475463867188 253.4184112548828 931.3408813476562 253.1984100341797 C 931.6342163085938 252.97840881347656 932.0875244140625 252.78173828125 932.7008666992188 252.60841369628906 C 933.314208984375 252.42840576171875 933.9075317382812 252.33840942382812 934.4808959960938 252.33840942382812 C 935.0475463867188 252.33840942382812 935.487548828125 252.35841369628906 935.8009033203125 252.39840698242188 C 936.1141967773438 252.43174743652344 936.5408935546875 252.51841735839844 937.0808715820312 252.65841674804688 C 937.6209106445312 252.7984161376953 938.0708618164062 253.06175231933594 938.430908203125 253.4484100341797 C 938.7842407226562 253.8284149169922 938.9742431640625 254.23507690429688 939.0008544921875 254.6684112548828 C 939.0275268554688 255.10174560546875 939.0408935546875 255.72174072265625 939.0408935546875 256.5284118652344 ZM 940.7274780273438 264.9684143066406 C 941.0541381835938 262.9884033203125 941.2174682617188 260.6150817871094 941.2174682617188 257.8484191894531 C 941.2174682617188 255.0750732421875 941.1341552734375 253.27508544921875 940.9674682617188 252.4484100341797 C 940.9674682617188 252.21507263183594 941.244140625 252.09841918945312 941.7974853515625 252.09841918945312 C 942.637451171875 252.09841918945312 943.1974487304688 252.4184112548828 943.4774780273438 253.05841064453125 C 943.4907836914062 253.1117401123047 943.5341186523438 253.13841247558594 943.6074829101562 253.13841247558594 C 943.6807861328125 253.13841247558594 943.7374877929688 253.1217498779297 943.7774658203125 253.08840942382812 C 944.3441162109375 252.50173950195312 945.22412109375 252.20840454101562 946.41748046875 252.20840454101562 C 947.6107788085938 252.20840454101562 948.5541381835938 252.51174926757812 949.2474365234375 253.118408203125 C 949.9474487304688 253.71841430664062 950.2974853515625 254.59841918945312 950.2974853515625 255.75840759277344 C 950.2974853515625 256.4517517089844 950.2374877929688 257.4417419433594 950.117431640625 258.7284240722656 C 949.9974365234375 260.0084228515625 949.9374389648438 260.96173095703125 949.9374389648438 261.5884094238281 C 949.9374389648438 263.0750732421875 950.1841430664062 264.1484069824219 950.677490234375 264.80841064453125 C 950.7507934570312 264.9017333984375 950.7874755859375 264.99176025390625 950.7874755859375 265.0783996582031 C 950.7874755859375 265.31842041015625 950.5308227539062 265.43841552734375 950.0174560546875 265.43841552734375 C 947.744140625 265.43841552734375 946.6074829101562 264.42840576171875 946.6074829101562 262.4084167480469 C 946.6074829101562 261.6417541503906 946.7841186523438 260.5717468261719 947.137451171875 259.19842529296875 C 947.484130859375 257.81842041015625 947.657470703125 256.7717590332031 947.657470703125 256.05841064453125 C 947.657470703125 254.5917510986328 947.05078125 253.85841369628906 945.8374633789062 253.85841369628906 C 945.2507934570312 253.85841369628906 944.8074340820312 254.03173828125 944.5074462890625 254.37841796875 C 944.2008056640625 254.72508239746094 944.0308227539062 255.1250762939453 943.9974365234375 255.5784149169922 C 943.9574584960938 256.02508544921875 943.9374389648438 256.8717346191406 943.9374389648438 258.118408203125 C 943.9374389648438 260.02508544921875 944.004150390625 261.6850891113281 944.137451171875 263.0984191894531 L 944.1874389648438 263.7084045410156 C 944.1874389648438 264.22174072265625 943.8541259765625 264.618408203125 943.1874389648438 264.8984069824219 C 942.5140991210938 265.1850891113281 941.9341430664062 265.3283996582031 941.4474487304688 265.3283996582031 C 940.9674682617188 265.3283996582031 940.7274780273438 265.2084045410156 940.7274780273438 264.9684143066406 ZM 961.43408203125 252.5384063720703 C 961.107421875 254.51841735839844 960.944091796875 257.0384216308594 960.944091796875 260.0984191894531 C 960.944091796875 262.3583984375 961.0340576171875 263.8450927734375 961.214111328125 264.55841064453125 L 961.3240966796875 264.9184265136719 C 961.3240966796875 265.1584167480469 961.1240844726562 265.2784118652344 960.7240600585938 265.2784118652344 C 959.3107299804688 265.2784118652344 958.5040893554688 264.8817443847656 958.3040771484375 264.0884094238281 C 958.2840576171875 263.9950866699219 958.24072265625 263.94842529296875 958.174072265625 263.94842529296875 C 958.1140747070312 263.94842529296875 958.0574340820312 263.9850769042969 958.0040893554688 264.05841064453125 C 957.4307250976562 264.8117370605469 956.5474243164062 265.18841552734375 955.3540649414062 265.18841552734375 C 954.694091796875 265.18841552734375 954.0074462890625 265.02508544921875 953.2940673828125 264.69842529296875 C 952.8540649414062 264.49176025390625 952.4974365234375 264.1383972167969 952.2240600585938 263.6383972167969 C 951.9507446289062 263.1317443847656 951.8140869140625 262.5117492675781 951.8140869140625 261.7784118652344 L 952.2240600585938 255.75840759277344 C 952.2240600585938 254.4917449951172 952.0940551757812 253.5917510986328 951.8341064453125 253.05841064453125 C 951.7474365234375 252.85841369628906 951.7041015625 252.72840881347656 951.7041015625 252.6684112548828 C 951.7041015625 252.56175231933594 951.7474365234375 252.48841857910156 951.8341064453125 252.4484100341797 C 952.12744140625 252.3617401123047 952.5040893554688 252.3184051513672 952.964111328125 252.3184051513672 C 954.7440795898438 252.3184051513672 955.6340942382812 253.05174255371094 955.6340942382812 254.51841735839844 C 955.6340942382812 254.97840881347656 955.4473876953125 256.0217590332031 955.0740966796875 257.6484069824219 C 954.694091796875 259.28173828125 954.5040893554688 260.4417419433594 954.5040893554688 261.12841796875 C 954.5040893554688 261.8217468261719 954.6574096679688 262.35174560546875 954.964111328125 262.7184143066406 C 955.2640991210938 263.0850830078125 955.68408203125 263.2684020996094 956.2240600585938 263.2684020996094 C 956.7640991210938 263.2684020996094 957.1907348632812 263.0750732421875 957.5040893554688 262.68841552734375 C 957.8174438476562 262.3017578125 958.000732421875 261.9150695800781 958.0540771484375 261.5284118652344 L 958.1340942382812 260.9584045410156 C 958.2073974609375 260.3117370605469 958.2440795898438 259.1817321777344 958.2440795898438 257.56842041015625 C 958.2440795898438 255.955078125 958.194091796875 254.93174743652344 958.0940551757812 254.4984130859375 C 957.9940795898438 254.07174682617188 957.944091796875 253.80174255371094 957.944091796875 253.68841552734375 C 957.944091796875 253.23507690429688 958.3107299804688 252.8750762939453 959.0440673828125 252.60841369628906 C 959.7774047851562 252.3417510986328 960.4374389648438 252.20840454101562 961.0241088867188 252.20840454101562 C 961.2974243164062 252.20840454101562 961.43408203125 252.3184051513672 961.43408203125 252.5384063720703 Z" transform="matrix(1.639430284500122, 0, 0, 1.639430284500122, -1322.605712890625, -358.8182678222656)" style="fill: rgb(109, 46, 70); white-space: pre; color: rgb(109, 46, 70);"/></svg>